# xmcd
#
# Track frame offsets: 
#        150
#        42845
#        59260
#        85770
#        107110
#        120825
#        158680
#        200467
#        241642
#
# Disc length: 3552 seconds
#
# Revision: 2
# Processed by: cddbd v1.5.2PL0 Copyright (c) Steve Scherf et al.
# Submitted via: ExactAudioCopy v0.95b4
#
DISCID=620dde09
DTITLE=Stardust - Timeless Earth
DYEAR=1996
DGENRE=
TTITLE0=Timeless Earth
TTITLE1=At The Borders
TTITLE2=Time
TTITLE3=Starlight
TTITLE4=Fata Morgana
TTITLE5=Rising Star
TTITLE6=Light Years
TTITLE7=Romance
TTITLE8=Stardust Memories
EXTD=
EXTT0=
EXTT1=
EXTT2=
EXTT3=
EXTT4=
EXTT5=
EXTT6=
EXTT7=
EXTT8=
PLAYORDER=
